<svg xmlns="http://www.w3.org/2000/svg" viewBox="0 0 39.69 59.53">
  <g>
    <polygon points="39.69 0 39.11 0 0.58 0 0 0 0 0.64 0 58.89 0 59.53 0.58 59.53 39.11 59.53 39.69 59.53 39.69 58.89 39.69 0.64 39.69 0 39.69 0" style="fill: #fff"/>
    <g>
      <path d="M39.11.64V58.89H.58V.64H39.11" style="fill: #231f20"/>
      <rect x="2.52" y="2.71" width="34.38" height="9.66" style="fill: #fff"/>
      <rect x="2.5" y="14.47" width="34.4" height="35.51" style="fill: #fff"/>
      <g>
        <polygon points="2.51 56.79 2.51 52.08 9.41 52.08 9.41 53.18 5.28 53.18 5.28 53.85 8.78 53.85 8.78 54.95 5.28 54.95 5.28 55.69 9.57 55.69 9.57 56.79 2.51 56.79" style="fill: #fff"/>
        <path d="M15.44,53.45a.52.52,0,0,0-.4-.32,2.9,2.9,0,0,0-.72-.09c-.61,0-.88.1-.88.28,0,.69,4.87.26,4.87,2,0,1.09-1.64,1.63-4,1.63s-3.7-.73-3.75-1.58h2.65a.69.69,0,0,0,.46.37,2.66,2.66,0,0,0,.79.12c.7,0,1.16-.12,1.16-.35,0-.71-4.88-.22-4.88-2,0-1,1.56-1.5,3.67-1.5,2.35,0,3.42.66,3.63,1.49Z" style="fill: #fff"/>
        <path d="M22.46,54.12h1.09c.86,0,1.32-.12,1.32-.45s-.47-.49-1.11-.49h-1.3Zm0,1v1.64H19.69V52.08h4c2.82,0,3.75.43,3.75,1.34,0,.55-.44,1-1.43,1.16.9.18,1.44.29,1.44,1.24,0,.61,0,.83.29.83v.14H24.93a1.78,1.78,0,0,1-.14-.82c0-.62-.19-.82-1.48-.82Z" style="fill: #fff"/>
        <path d="M31.91,53.18V54h1.16c.55,0,1-.14,1-.41s-.54-.38-1.13-.38Zm0,1.64v.87h1.21c.69,0,1.21-.08,1.21-.43s-.65-.44-1.53-.44Zm-2.77,2V52.08h4c1.9,0,3.42.25,3.42,1.18,0,.49-.57.84-1.1,1,.91.13,1.4.57,1.4,1.08,0,1-1.44,1.42-3.64,1.42Z" style="fill: #fff"/>
      </g>
      <g>
        <path d="M21,36.29c-.57-2.13-1.71-3.37-3.33-3.81,1-1.18,1.58-3,.81-5.87-1.09-4-3.85-5.95-7.2-5.06l-7.62,2H3.51L9.79,47l5.1-1.36-2.43-9,.24-.07a2.35,2.35,0,0,1,1.73,0c.68.39,1,1.56,1.35,2.91l.28,1.07a10.19,10.19,0,0,0,1.56,3.79l.35.45,5.83-1.54-.79-1A34,34,0,0,1,21,36.29Zm-8.34-4.18-1.3.35c-.38-1.41-1.25-4.65-1.63-6.05l1.3-.35c.61-.16,1.65-.43,2.4,2.36.11.58.77,3.27-.8,3.69Z" style="fill: #231f20"/>
        <path d="M27.36,17.67l-6.87,1.82-.82.22L26,43.07l5.21-1.39s-2-7.5-2.4-8.84L31,32.25c4.06-1.09,5.61-4.24,4.36-8.88C33.77,17.33,30.13,16.94,27.36,17.67ZM29.48,28l-1.85.5-1.63-6,1.58-.42c.9-.24,1.92-.24,2.74,2.77C30.71,26.26,30.3,27.82,29.48,28Z" style="fill: #231f20"/>
      </g>
      <g>
        <path d="M4.15,10.28H3.47V4.8H4.74a.62.62,0,0,1,.56.36,2.36,2.36,0,0,1,.2,1.08,2.39,2.39,0,0,1-.14.88.64.64,0,0,1-.47.46h.16a.48.48,0,0,1,.2.14A1.17,1.17,0,0,1,5.42,8a2.25,2.25,0,0,1,.07.58V10a1.41,1.41,0,0,0,0,.29h-.6a3,3,0,0,1-.07-.52v-1a1.74,1.74,0,0,0-.05-.39.51.51,0,0,0-.14-.26.45.45,0,0,0-.3-.1H4.15Zm0-3.11h.31a.21.21,0,0,0,.17-.08.72.72,0,0,0,.11-.19,1.13,1.13,0,0,0,0-.26V6.36a1,1,0,0,0-.1-.55.27.27,0,0,0-.25-.17H4.15Z" style="fill: #231f20"/>
        <path d="M5.76,10.28l.9-5.48h.91l.89,5.48H7.74L7.55,9.07H6.62l-.19,1.21ZM7.08,5.86h0L6.75,8.23h.66Z" style="fill: #231f20"/>
        <path d="M10.46,4.8v.91H9.7v4.57H9V5.71H8.25V4.8Z" style="fill: #231f20"/>
        <path d="M10.78,10.28V4.8h.68v5.48Z" style="fill: #231f20"/>
        <path d="M12,10.28V4.8h1l.87,3.8h0V4.8h.64v5.48h-.9l-.9-4h0v4Z" style="fill: #231f20"/>
        <path d="M16.56,6.49V6.12a1,1,0,0,0,0-.3.46.46,0,0,0-.13-.21.32.32,0,0,0-.21-.08.27.27,0,0,0-.25.17,1.39,1.39,0,0,0-.13.44c0,.22,0,.43,0,.65V8.56a4.07,4.07,0,0,0,.08.61A.57.57,0,0,0,16,9.5a.41.41,0,0,0,.24.08h.17l.17-.08V8.26h-.37V7.41h1.06v2.78l-.19.06-.25.06h-.49a1.38,1.38,0,0,1-.69-.16,1,1,0,0,1-.39-.5,3.89,3.89,0,0,1-.17-.89V6.43a3.84,3.84,0,0,1,.14-.89A1.39,1.39,0,0,1,15.54,5a1,1,0,0,1,1.11-.12.92.92,0,0,1,.34.34,1.59,1.59,0,0,1,.2.55,3.29,3.29,0,0,1,.06.77Z" style="fill: #231f20"/>
        <path d="M18.85,4.8h1.24a.8.8,0,0,1,.4.11.86.86,0,0,1,.27.33,1.93,1.93,0,0,1,.15.52,5.19,5.19,0,0,1,.05.68A4.51,4.51,0,0,1,21,7a1.89,1.89,0,0,1-.13.52,1,1,0,0,1-.27.41.7.7,0,0,1-.48.16h-.51v2.23h-.69Zm.69,2.41h.38a.17.17,0,0,0,.14-.07A.76.76,0,0,0,20.17,7a2.17,2.17,0,0,0,.07-.24,1.22,1.22,0,0,0,0-.27V6.17a1.1,1.1,0,0,0-.06-.26.36.36,0,0,0-.12-.18.26.26,0,0,0-.19-.07h-.34Z" style="fill: #231f20"/>
        <path d="M21.37,10.28V4.8h1.79v.84h-1.1V7h1v.84h-1v1.6H23.2v.84Z" style="fill: #231f20"/>
        <path d="M23.64,10.28V4.8h.93l.87,3.8h0V4.8h.64v5.48h-.9l-.9-4h0v4Z" style="fill: #231f20"/>
        <path d="M26.68,4.8h1.14a.78.78,0,0,1,.55.18,1.12,1.12,0,0,1,.32.53,3.62,3.62,0,0,1,.16.86V8.59a3.2,3.2,0,0,1-.09.62,1.66,1.66,0,0,1-.18.53,1.22,1.22,0,0,1-.32.39.9.9,0,0,1-.48.14h-1.1Zm.69,4.64h.33a.35.35,0,0,0,.25-.1A.62.62,0,0,0,28.1,9a3.81,3.81,0,0,0,.08-.59V6.81a4,4,0,0,0-.05-.6A1.23,1.23,0,0,0,28,5.8a.32.32,0,0,0-.28-.16h-.35Z" style="fill: #231f20"/>
        <path d="M29.44,10.28V4.8h.69v5.48Z" style="fill: #231f20"/>
        <path d="M30.71,10.28V4.8h.92l.87,3.8h0V4.8h.64v5.48h-.9l-.89-4h0v4Z" style="fill: #231f20"/>
        <path d="M35.23,6.49V6.12a1.59,1.59,0,0,0-.06-.3A.58.58,0,0,0,35,5.61a.35.35,0,0,0-.22-.08.27.27,0,0,0-.25.17,1.69,1.69,0,0,0-.12.44,4.74,4.74,0,0,0,0,.65V8.56a4.22,4.22,0,0,0,.07.61.54.54,0,0,0,.15.29.41.41,0,0,0,.24.08H35l.16-.08V8.26h-.37V7.41h1.06v2.78l-.18.06-.25.06h-.5a1.34,1.34,0,0,1-.68-.16.89.89,0,0,1-.39-.5,3,3,0,0,1-.17-.89V6.43a4.46,4.46,0,0,1,.14-.89A1.6,1.6,0,0,1,34.2,5a.9.9,0,0,1,.66-.24.89.89,0,0,1,.45.12.92.92,0,0,1,.34.34,1.84,1.84,0,0,1,.21.55,3.31,3.31,0,0,1,0,.77Z" style="fill: #231f20"/>
      </g>
    </g>
  </g>
</svg>
